<?xml version="1.0" encoding="UTF-8" standalone="no"?><!DOCTYPE svg PUBLIC "-//W3C//DTD SVG 1.1//EN" "http://www.w3.org/Graphics/SVG/1.1/DTD/svg11.dtd">
<svg width="100%" height="100%" viewBox="0 0 1000 1000" version="1.1"
  xmlns="http://www.w3.org/2000/svg"
  xmlns:xlink="http://www.w3.org/1999/xlink" xml:space="preserve"
  xmlns:serif="http://www.serif.com/" style="fill-rule:evenodd;clip-rule:evenodd;stroke-linejoin:round;stroke-miterlimit:2;">
  <rect id="Shoperia" x="0" y="0" width="1000" height="1000" style="fill:none;"/>
  <clipPath id="_clip1">
    <rect id="Shoperia1" serif:id="Shoperia" x="0" y="0" width="1000" height="1000"/>
  </clipPath>
  <g clip-path="url(#_clip1)">
    <clipPath id="_clip2">
      <rect x="81" y="27" width="837.081" height="1000"/>
    </clipPath>
    <g clip-path="url(#_clip2)">
      <path d="M651.793,732.788c-5.488,45.29 -32.931,81.562 -75.439,99.725c-23.673,10.118 -55.458,15.58 -80.617,13.864c-39.248,-1.5 -76.121,-11.044 -110.109,-28.492c-12.142,-6.237 -30.243,-18.69 -44.141,-30.354c-3.521,-2.947 -3.939,-4.836 -1.609,-8.14c1.257,-1.896 3.576,-5.317 8.702,-12.828c7.434,-10.893 8.362,-12.258 9.198,-13.535c2.379,-3.651 6.243,-3.97 10.055,-0.97c0.401,0.312 0.401,0.312 0.703,0.549c0.625,0.484 0.625,0.484 2.101,1.631c1.493,1.164 2.378,1.85 2.737,2.119c36.655,28.708 79.345,45.265 122.443,46.92c59.963,-0.817 103.082,-27.778 110.808,-69.176c8.495,-45.562 -27.271,-84.919 -97.246,-106.857c-21.885,-6.859 -77.202,-29.002 -87.402,-34.984c-47.897,-28.104 -70.291,-64.914 -67.108,-110.381c4.877,-63.024 63.384,-110.03 137.312,-110.344c33.061,-0.068 66.051,6.803 97.745,20.157c11.222,4.73 31.258,15.634 38.176,20.799c3.984,2.925 4.771,6.336 2.487,10.015c-1.275,2.133 -3.383,5.515 -7.827,12.566l-0.049,0.078c-5.85,9.286 -6.033,9.576 -7.375,11.749c-2.319,3.53 -5.045,3.859 -9.226,1.206c-33.914,-22.783 -71.511,-34.245 -112.859,-35.073c-51.478,1.019 -90.061,31.655 -92.598,73.39c-0.675,37.694 27.597,65.214 88.666,86.196c123.962,39.835 171.399,86.536 162.472,160.17m-153.091,-650.723c80.705,-0 146.489,76.588 149.567,172.46l-299.13,-0c3.077,-95.872 68.861,-172.46 149.563,-172.46m417.674,190.484c-0,-9.955 -8.018,-18.024 -17.904,-18.024l-193.888,-0c-4.757,-126.587 -95.113,-227.525 -205.882,-227.525c-110.765,0 -201.122,100.938 -205.879,227.525l-194.165,0.003c-9.735,0.177 -17.574,8.179 -17.574,18.021c0,0.471 0.018,0.938 0.053,1.398l-0.137,-0l27.678,610.132c0.004,1.698 0.067,3.41 0.193,5.133c0.028,0.389 0.06,0.775 0.092,1.16l0.059,1.288l0.067,0.067c4.206,42.457 35.018,76.652 76.914,78.23l0.095,0.092l615.908,-0c0.291,0.003 0.583,0.007 0.875,0.007c0.291,-0 0.583,-0.004 0.874,-0.007l1.311,-0l0.028,-0.025c42.627,-1.164 77.157,-35.837 80.803,-78.817l0.022,-0.021l0.028,-0.577c0.035,-0.452 0.066,-0.902 0.095,-1.354c0.066,-1.083 0.112,-2.162 0.129,-3.234l30.201,-612.541l-0.021,-0c0.018,-0.308 0.025,-0.619 0.025,-0.931m2053.27,397.65c11.867,-38.708 47.749,-64.512 89.619,-64.512c39.966,0 78.018,27.142 91.164,64.438l0.902,2.564l-182.451,-0l0.766,-2.49Zm222.291,56.078c0.246,0.011 0.246,0.011 0.607,0.014c0.362,-0.003 0.362,-0.003 0.731,-0.014c8.734,-0.4 15.649,-7.847 15.649,-16.91c0,-0.439 -0.014,-0.818 -0.042,-1.425c0.007,-0.113 0.007,-0.334 0.007,-1.047c0,-85.485 -67.015,-154.762 -149.67,-154.762c-82.651,0 -149.667,69.277 -149.667,154.762c0,6.373 0.369,12.729 1.117,19.045l0.042,0.337l0.232,1.668c4.116,30.759 17.24,58.989 37.968,81.833c-0.01,-0.01 0.011,0.011 0.12,0.13c22.982,25.292 54.186,42.529 88.793,48.975l0.453,0.088l0,-0.046l2.248,0.376c1.155,0.197 2.374,0.39 4.007,0.643c45.55,5.477 85.956,-1.089 120.169,-18.319c8.426,-4.245 16.001,-8.929 22.565,-13.876c2.111,-1.594 4.011,-3.136 5.654,-4.579c0.847,-0.744 1.521,-1.369 1.879,-1.731c7.719,-7.953 8.201,-10.772 3.544,-18.034c-5.128,-8.16 -9.651,-15.112 -13.528,-20.867c-1.356,-2.015 -2.536,-3.732 -3.53,-5.158c-0.548,-0.783 -0.548,-0.783 -0.896,-1.278c-0.137,-0.193 -0.137,-0.193 -0.228,-0.316l-0.042,-0.063c-4.218,-5.25 -7.105,-5.731 -11.786,-1.598c-0.499,0.443 -2.167,1.731 -2.469,2.051c-32.914,29.227 -77.861,38.63 -122.744,29.238c-8.358,-2.244 -16.176,-5.095 -23.376,-8.536c-28.12,-14.101 -48.044,-39.224 -53.793,-68.304l-0.453,-2.297l226.439,0Zm-578.438,-56.078c11.867,-38.708 47.749,-64.512 89.618,-64.512c39.966,0 78.018,27.142 91.167,64.438l0.899,2.564l-182.449,-0l0.765,-2.49Zm222.289,56.078c0.249,0.011 0.249,0.011 0.611,0.014c0.358,-0.003 0.358,-0.003 0.727,-0.014c8.734,-0.4 15.649,-7.847 15.649,-16.91c-0,-0.439 -0.014,-0.818 -0.042,-1.425c0.007,-0.113 0.007,-0.334 0.007,-1.047c-0,-85.485 -67.015,-154.762 -149.669,-154.762c-82.646,0 -149.668,69.277 -149.668,154.762c-0,6.373 0.376,12.729 1.12,19.045l0.042,0.337l0.232,1.668c4.116,30.759 17.24,58.989 37.968,81.833c-0.011,-0.01 0.01,0.011 0.119,0.13c22.982,25.292 54.186,42.529 88.793,48.975l0.453,0.088l-0,-0.046l2.247,0.376c1.156,0.197 2.374,0.39 4.011,0.643c45.55,5.477 85.955,-1.089 120.165,-18.319c8.425,-4.245 16,-8.929 22.564,-13.876c2.11,-1.594 4.01,-3.136 5.654,-4.579c0.846,-0.744 1.521,-1.369 1.879,-1.731c7.719,-7.953 8.2,-10.772 3.543,-18.034c-5.127,-8.16 -9.65,-15.112 -13.528,-20.867c-1.355,-2.015 -2.535,-3.732 -3.526,-5.158c-0.551,-0.783 -0.551,-0.783 -0.899,-1.278c-0.137,-0.193 -0.137,-0.193 -0.228,-0.316l-0.039,-0.063c-4.221,-5.25 -7.108,-5.731 -11.789,-1.598c-0.499,0.443 -2.167,1.731 -2.469,2.051c-32.91,29.227 -77.86,38.63 -122.742,29.238c-8.359,-2.244 -16.176,-5.095 -23.376,-8.536c-28.12,-14.101 -48.04,-39.224 -53.789,-68.304l-0.456,-2.297l226.436,0Zm-494.097,85.237c-55.666,-0 -101.193,-44.134 -102.591,-99.442l0,-5.206c1.383,-55.219 46.925,-99.36 102.591,-99.36c56.672,-0 102.616,45.668 102.616,102.004c-0,56.335 -45.944,102.004 -102.616,102.004m0.028,-258.122c-36.51,0 -71.396,12.435 -99.433,35.243l-3.186,2.591l0,-28.546c0,-7.612 -1.636,-9.288 -9.341,-9.288l-35.831,0c-7.805,0 -9.345,1.552 -9.345,9.288l0,455.032c0,7.474 1.743,9.288 9.345,9.288l35.831,-0c7.631,-0 9.341,-1.775 9.341,-9.288l0,-189.762l3.186,2.59c28.041,22.811 62.926,35.247 99.433,35.247c86.782,-0 157.133,-69.933 157.133,-156.199c-0,-86.263 -70.351,-156.196 -157.133,-156.196m-369.021,254.636c-56.787,-0 -102.823,-45.268 -102.823,-101.124c0,-55.857 46.039,-101.128 102.823,-101.128c56.777,0 102.816,45.271 102.816,101.128c0,55.852 -46.035,101.124 -102.816,101.124m0.032,-255.895c-86.954,0 -157.434,69.33 -157.434,154.848c0,85.515 70.48,154.848 157.434,154.848c86.95,-0 157.423,-69.333 157.423,-154.848c-0,-85.518 -70.469,-154.848 -157.423,-154.848m-350.947,3.439c-31.742,0 -62.458,10.206 -87.94,29.067l-3.098,2.294l-0,-211.326c-0,-7.004 -2.298,-9.291 -9.302,-9.291l-37.506,0c-7.574,0 -9.305,1.812 -9.305,9.291l-0,482.085c-0,7.299 1.869,9.298 9.305,9.298l37.506,0c6.958,0 9.302,-2.4 9.302,-9.298l-0,-157.463c0.389,-49.569 41.043,-89.579 91.038,-89.579c50.122,0 90.822,40.204 91.035,89.937l-0,157.105c-0,7.976 1.327,9.295 9.305,9.295l37.414,-0c7.931,-0 9.305,-1.358 9.305,-9.295l0,-157.566c-0.297,-79.483 -66.576,-144.554 -147.059,-144.554m-522.626,223.971l-0.088,0.135c-5.348,8.101 -7.588,11.509 -8.839,13.466c-4.216,6.275 -3.692,9.073 2.746,14.515c15.025,12.113 34.339,24.834 47.371,31.206c36.256,17.728 75.416,27.098 116.915,27.946c26.807,1.352 60.475,-5.022 85.546,-16.204c45.388,-20.247 74.298,-59.709 79.365,-108.316c8.207,-78.759 -43.039,-127.994 -175.035,-167.672l-0.035,-0.011c-61.499,-19.834 -90.388,-46.201 -90.399,-83.015c1.811,-40.688 39.537,-71.085 90.434,-72.982c41,0.103 77.248,10.991 112.864,33.911c7.511,4.556 10.975,3.716 16.024,-2.836c0.58,-0.967 2.194,-3.312 8.945,-13.007l0.021,-0.031c6.305,-9.056 8.38,-12.079 8.896,-12.972c4.255,-8.006 3.647,-11.093 -4.033,-16.539c-7.563,-5.418 -28.868,-16.503 -41.052,-21.367c-33.886,-13.519 -68.918,-20.084 -103.785,-19.406c-79.347,1.723 -141.23,53.328 -145.309,121.026c-2.588,48.9 22.23,88.221 74.084,117.29c14.536,7.675 67.688,27.766 92.495,35.031c70.539,20.656 107.315,58.657 99.717,103.492c-6.903,40.734 -49.583,67.825 -109.475,69.679c-43.432,-0.904 -87.192,-16.821 -125.188,-45.375c-0.19,-0.137 -1.154,-0.854 -2.93,-2.179c-2.496,-1.861 -2.496,-1.861 -2.869,-2.14c-7.746,-5.347 -12.303,-4.902 -17.032,2.144c-0.57,0.872 -6.453,9.818 -9.354,14.211"/>
    </g>
  </g>
</svg>
